{"accessors":[{"bufferView":0,"componentType":5123,"count":3468,"max":[662],"min":[0],"type":"SCALAR"},{"bufferView":1,"componentType":5126,"count":663,"max":[0.9957341551780701,1.0,1.0],"min":[-0.9957341551780701,-1.0,-1.0],"type":"VEC3"},{"bufferView":2,"componentType":5126,"count":663,"max":[0.9957274198532104,1.0,0.999969482421875],"min":[-0.9957274198532104,-1.0,-1.0],"type":"VEC3"},{"bufferView":3,"componentType":5126,"count":663,"max":[1.0000001192092896,1.0],"min":[0.0,0.0],"type":"VEC2"},{"bufferView":4,"componentType":5123,"count":3468,"max":[662],"min":[0],"type":"SCALAR"},{"bufferView":5,"componentType":5126,"count":663,"max":[0.9957341551780701,1.0,1.0],"min":[-0.9957341551780701,-1.0,-1.0],"type":"VEC3"},{"bufferView":6,"componentType":5126,"count":663,"max":[0.9957274198532104,1.0,0.999969482421875],"min":[-0.9957274198532104,-1.0,-1.0],"type":"VEC3"},{"bufferView":7,"componentType":5126,"count":663,"max":[1.0000001192092896,1.0],"min":[0.0,0.0],"type":"VEC2"},{"bufferView":8,"componentType":5123,"count":2880,"max":[1983],"min":[0],"type":"SCALAR"},{"bufferView":9,"componentType":5126,"count":1984,"max":[0.9999997019767761,1.0,0.9999994039535522],"min":[-0.9999990463256836,-1.0,-0.9999987483024597],"type":"VEC3"},{"bufferView":10,"componentType":5126,"count":1984,"max":[0.9904384613037109,0.99513840675354,0.9904384613037109],"min":[-0.9904386401176453,-0.99513840675354,-0.9904389381408691],"type":"VEC3"},{"bufferView":11,"componentType":5126,"count":1984,"max":[1.0000001192092896,1.0],"min":[0.0,0.0],"type":"VEC2"},{"bufferView":12,"componentType":5123,"count":2880,"max":[1983],"min":[0],"type":"SCALAR"},{"bufferView":13,"componentType":5126,"count":1984,"max":[0.9999997019767761,1.0,0.9999994039535522],"min":[-0.9999990463256836,-1.0,-0.9999987483024597],"type":"VEC3"},{"bufferView":14,"componentType":5126,"count":1984,"max":[0.9904384613037109,0.99513840675354,0.9904384613037109],"min":[-0.9904386401176453,-0.99513840675354,-0.9904389381408691],"type":"VEC3"},{"bufferView":15,"componentType":5126,"count":1984,"max":[1.0000001192092896,1.0],"min":[0.0,0.0],"type":"VEC2"},{"bufferView":16,"componentType":5123,"count":2880,"max":[1983],"min":[0],"type":"SCALAR"},{"bufferView":17,"componentType":5126,"count":1984,"max":[0.9999997019767761,1.0,0.9999994039535522],"min":[-0.9999990463256836,-1.0,-0.9999987483024597],"type":"VEC3"},{"bufferView":18,"componentType":5126,"count":1984,"max":[0.9904384613037109,0.99513840675354,0.9904384613037109],"min":[-0.9904386401176453,-0.99513840675354,-0.9904389381408691],"type":"VEC3"},{"bufferView":19,"componentType":5126,"count":1984,"max":[1.0000001192092896,1.0],"min":[0.0,0.0],"type":"VEC2"},{"bufferView":20,"componentType":5123,"count":2880,"max":[558],"min":[0],"type":"SCALAR"},{"bufferView":21,"componentType":5126,"count":559,"max":[0.9999997019767761,1.0004549026489258,0.9999994039535522],"min":[-0.9999990463256836,-1.0,-0.9999987483024597],"type":"VEC3"},{"bufferView":22,"componentType":5126,"count":559,"max":[0.999969482421875,0.999969482421875,0.999969482421875],"min":[-0.999969482421875,-1.0,-1.0],"type":"VEC3"},{"bufferView":23,"componentType":5126,"count":559,"max":[1.0000001192092896,1.0],"min":[0.0,0.0],"type":"VEC2"}],"asset":{"generator":"Soft8Soft Verge3D for Blender add-on","version":"2.0"},"bufferViews":[{"buffer":0,"byteLength":6936,"byteOffset":0,"target":34963},{"buffer":0,"byteLength":7956,"byteOffset":6936,"target":34962},{"buffer":0,"byteLength":7956,"byteOffset":14892,"target":34962},{"buffer":0,"byteLength":5304,"byteOffset":22848,"target":34962},{"buffer":0,"byteLength":6936,"byteOffset":28152,"target":34963},{"buffer":0,"byteLength":7956,"byteOffset":35088,"target":34962},{"buffer":0,"byteLength":7956,"byteOffset":43044,"target":34962},{"buffer":0,"byteLength":5304,"byteOffset":51000,"target":34962},{"buffer":0,"byteLength":5760,"byteOffset":56304,"target":34963},{"buffer":0,"byteLength":23808,"byteOffset":62064,"target":34962},{"buffer":0,"byteLength":23808,"byteOffset":85872,"target":34962},{"buffer":0,"byteLength":15872,"byteOffset":109680,"target":34962},{"buffer":0,"byteLength":5760,"byteOffset":125552,"target":34963},{"buffer":0,"byteLength":23808,"byteOffset":131312,"target":34962},{"buffer":0,"byteLength":23808,"byteOffset":155120,"target":34962},{"buffer":0,"byteLength":15872,"byteOffset":178928,"target":34962},{"buffer":0,"byteLength":5760,"byteOffset":194800,"target":34963},{"buffer":0,"byteLength":23808,"byteOffset":200560,"target":34962},{"buffer":0,"byteLength":23808,"byteOffset":224368,"target":34962},{"buffer":0,"byteLength":15872,"byteOffset":248176,"target":34962},{"buffer":0,"byteLength":5760,"byteOffset":264048,"target":34963},{"buffer":0,"byteLength":6708,"byteOffset":269808,"target":34962},{"buffer":0,"byteLength":6708,"byteOffset":276516,"target":34962},{"buffer":0,"byteLength":4472,"byteOffset":283224,"target":34962}],"buffers":[{"byteLength":287696,"uri":"Avada_planet_new.bin"}],"cameras":[{"extensions":{"S8S_v3d_camera_data":{"controls":"ORBIT","enablePan":true,"moveSpeed":1.0,"orbitMaxDistance":20.0,"orbitMaxPolarAngle":2.268928050994873,"orbitMaxZoom":100.0,"orbitMinDistance":5.0,"orbitMinPolarAngle":0.8726646304130554,"orbitMinZoom":0.009999999776482582,"orbitTarget":[0.0,0.05901956558227539,-0.0],"rotateSpeed":1.0,"viewportFitInitialAspect":1.0,"viewportFitType":"AUTO"}},"name":"Camera","perspective":{"aspectRatio":1.0,"yfov":1.453284740447998,"zfar":100.0,"znear":1.0},"type":"perspective"},{"extensions":{"S8S_v3d_camera_data":{"controls":"ORBIT","enablePan":true,"moveSpeed":1.0,"orbitMaxDistance":20.0,"orbitMaxPolarAngle":3.1415927410125732,"orbitMaxZoom":100.0,"orbitMinDistance":5.0,"orbitMinPolarAngle":0.0,"orbitMinZoom":0.009999999776482582,"orbitTarget":[0.0,0.0,-0.0],"rotateSpeed":1.0,"viewportFitInitialAspect":1.0,"viewportFitType":"AUTO"}},"name":"Camera.001","perspective":{"aspectRatio":1.0,"yfov":1.1685426235198975,"zfar":1000.0,"znear":0.10000000149011612},"type":"perspective"}],"extensions":{"S8S_v3d_data":{"lights":[{"color":[1.0,1.0,1.0],"intensity":10.0,"name":"Sun","profile":"blender","shadow":{"bias":-0.0018,"cameraFar":100,"cameraFov":0,"cameraNear":0.1,"csm":{"maxDistance":200.0},"enabled":true,"expBias":2.5,"mapSize":1024,"radius":1.0,"slopeScaledBias":2.5},"type":"directional"}]}},"extensionsUsed":["S8S_v3d_texture_data","S8S_v3d_material_data","S8S_v3d_camera_data","S8S_v3d_data","S8S_v3d_mesh_data","S8S_v3d_node_data","S8S_v3d_scene_data"],"images":[{"uri":"cloud_combined_2048.png"},{"uri":"planet-texture.png"},{"uri":"2k_jupiter.png"},{"uri":"moon.jpg"},{"uri":"2k_venus_surface.png"},{"uri":"ізфсу.jpeg"}],"materials":[{"alphaMode":"BLEND","doubleSided":true,"extensions":{"S8S_v3d_material_data":{"blendMode":{"blendEquation":32774,"dstRGB":771,"srcRGB":1},"depthWrite":false,"gtaoVisible":false,"materialIndex":0,"nodeGraph":{"edges":[{"fromNode":1,"fromOutput":0,"toInput":0,"toNode":0},{"fromNode":2,"fromOutput":0,"toInput":2,"toNode":1},{"fromNode":3,"fromOutput":0,"toInput":1,"toNode":1},{"fromNode":4,"fromOutput":0,"toInput":0,"toNode":2},{"fromNode":5,"fromOutput":0,"toInput":0,"toNode":3}],"nodes":[{"inputs":[[0,0,0,0],[0,0,0,0],[0.0,0.0,0.0]],"is_active_output":true,"name":"Material Output","outputs":[],"type":"OUTPUT_MATERIAL_BL"},{"inputs":[0.30000001192092896,[0,0,0,0],[0,0,0,0]],"is_active_output":false,"name":"Mix Shader","outputs":[[0,0,0,0]],"type":"MIX_SHADER_BL"},{"inputs":[[0.800000011920929,0.800000011920929,0.800000011920929,1.0],0.0,[1.0,0.20000000298023224,0.10000000149011612],[0.800000011920929,0.800000011920929,0.800000011920929,1.0],1.399999976158142,0.0,0.0,0.5,0.0,1.0,0.0,0.0,0.0,0.5,0.0,0.029999999329447746,1.4500000476837158,0.0,0.0,[0.0,0.0,0.0,1.0],1.0,1.0,[0.0,0.0,0.0],[0.0,0.0,0.0],[0.0,0.0,0.0]],"is_active_output":false,"name":"Principled BSDF","outputs":[[0,0,0,0]],"type":"BSDF_PRINCIPLED_BL"},{"inputs":[[1.0,1.0,1.0,1.0]],"is_active_output":false,"name":"Transparent BSDF","outputs":[[0,0,0,0]],"type":"BSDF_TRANSPARENT_BL"},{"inputs":[[0.0,0.0,0.0]],"is_active_output":false,"name":"Image Texture","outputs":[[0.0,0.0,0.0,0.0],0.0],"projection":"FLAT","projectionBlend":0.0,"texture":0,"type":"TEX_IMAGE_BL"},{"curve":{"input":[0.0,1.0],"interpolation":"LINEAR","output":[0.0,0.0,0.0,1.0,1.0,1.0,1.0,1.0]},"inputs":[0.7363637089729309],"is_active_output":false,"name":"ColorRamp","outputs":[[0.0,0.0,0.0,0.0],0.0],"type":"VALTORGB_BL"}]},"renderSide":"DOUBLE","useCastShadows":false}},"name":"clouds2"},{"extensions":{"S8S_v3d_material_data":{"gtaoVisible":true,"materialIndex":0,"nodeGraph":{"edges":[{"fromNode":0,"fromOutput":0,"toInput":0,"toNode":1},{"fromNode":2,"fromOutput":0,"toInput":0,"toNode":0}],"nodes":[{"inputs":[[0.800000011920929,0.800000011920929,0.800000011920929,1.0],0.0,[1.0,0.20000000298023224,0.10000000149011612],[0.800000011920929,0.800000011920929,0.800000011920929,1.0],1.0099999904632568,0.0,0.0,0.0,0.0,0.0,0.0,0.0,0.0,0.0,0.0,1.0,1.4500000476837158,0.0,0.0,[0.0,0.0,0.0,1.0],1.0,1.0,[0.0,0.0,0.0],[0.0,0.0,0.0],[0.0,0.0,0.0]],"is_active_output":false,"name":"Principled BSDF","outputs":[[0,0,0,0]],"type":"BSDF_PRINCIPLED_BL"},{"inputs":[[0,0,0,0],[0,0,0,0],[0.0,0.0,0.0]],"is_active_output":true,"name":"Material Output","outputs":[],"type":"OUTPUT_MATERIAL_BL"},{"inputs":[[0.0,0.0,0.0]],"is_active_output":false,"name":"Image Texture","outputs":[[0.0,0.0,0.0,0.0],0.0],"projection":"FLAT","projectionBlend":0.0,"texture":1,"type":"TEX_IMAGE_BL"}]},"useCastShadows":true}},"name":"earth-material"},{"extensions":{"S8S_v3d_material_data":{"gtaoVisible":true,"materialIndex":0,"nodeGraph":{"edges":[{"fromNode":1,"fromOutput":0,"toInput":0,"toNode":0},{"fromNode":2,"fromOutput":0,"toInput":0,"toNode":1}],"nodes":[{"inputs":[[0,0,0,0],[0,0,0,0],[0.0,0.0,0.0]],"is_active_output":true,"name":"Material Output","outputs":[],"type":"OUTPUT_MATERIAL_BL"},{"inputs":[[0.8000000715255737,0.6969820261001587,0.6539230942726135,1.0],0.0,[1.0,0.20000000298023224,0.10000000149011612],[0.800000011920929,0.800000011920929,0.800000011920929,1.0],1.0099999904632568,0.0,1.0,0.0,0.0,1.0,0.0,0.0,0.0,0.5,0.0,0.029999999329447746,1.4500000476837158,0.0,0.0,[0.0,0.0,0.0,1.0],0.0,1.0,[0.0,0.0,0.0],[0.0,0.0,0.0],[0.0,0.0,0.0]],"is_active_output":false,"name":"Principled BSDF","outputs":[[0,0,0,0]],"type":"BSDF_PRINCIPLED_BL"},{"inputs":[[0.0,0.0,0.0]],"is_active_output":false,"name":"Image Texture","outputs":[[0.0,0.0,0.0,0.0],0.0],"projection":"FLAT","projectionBlend":0.0,"texture":2,"type":"TEX_IMAGE_BL"}]},"useCastShadows":true}},"name":"jupiter"},{"extensions":{"S8S_v3d_material_data":{"gtaoVisible":true,"materialIndex":0,"nodeGraph":{"edges":[{"fromNode":0,"fromOutput":0,"toInput":0,"toNode":1},{"fromNode":2,"fromOutput":0,"toInput":0,"toNode":0}],"nodes":[{"inputs":[[0.800000011920929,0.800000011920929,0.800000011920929,1.0],0.0,[1.0,0.20000000298023224,0.10000000149011612],[0.800000011920929,0.800000011920929,0.800000011920929,1.0],1.399999976158142,0.0,0.0,0.5,0.0,0.5,0.0,0.0,0.0,0.5,0.0,0.029999999329447746,1.4500000476837158,0.0,0.0,[0.0,0.0,0.0,1.0],1.0,1.0,[0.0,0.0,0.0],[0.0,0.0,0.0],[0.0,0.0,0.0]],"is_active_output":false,"name":"Principled BSDF","outputs":[[0,0,0,0]],"type":"BSDF_PRINCIPLED_BL"},{"inputs":[[0,0,0,0],[0,0,0,0],[0.0,0.0,0.0]],"is_active_output":true,"name":"Material Output","outputs":[],"type":"OUTPUT_MATERIAL_BL"},{"inputs":[[0.0,0.0,0.0]],"is_active_output":false,"name":"Image Texture","outputs":[[0.0,0.0,0.0,0.0],0.0],"projection":"FLAT","projectionBlend":0.0,"texture":3,"type":"TEX_IMAGE_BL"}]},"useCastShadows":true}},"name":"moon"},{"extensions":{"S8S_v3d_material_data":{"gtaoVisible":true,"materialIndex":0,"nodeGraph":{"edges":[{"fromNode":0,"fromOutput":0,"toInput":0,"toNode":1},{"fromNode":2,"fromOutput":0,"toInput":0,"toNode":0}],"nodes":[{"inputs":[[0.6399999856948853,0.6399999856948853,0.6399999856948853,1.0],0.0,[1.0,0.20000000298023224,0.10000000149011612],[0.800000011920929,0.800000011920929,0.800000011920929,1.0],1.399999976158142,0.0,0.0,0.07142899930477142,0.0,0.6732679605484009,0.0,0.0,0.0,0.5,0.0,0.029999999329447746,1.0,0.0,0.0,[0.0,0.0,0.0,1.0],1.0,1.0,[0.0,0.0,0.0],[0.0,0.0,0.0],[0.0,0.0,0.0]],"is_active_output":false,"name":"Principled BSDF","outputs":[[0,0,0,0]],"type":"BSDF_PRINCIPLED_BL"},{"inputs":[[0,0,0,0],[0,0,0,0],[0.0,0.0,0.0]],"is_active_output":true,"name":"Material Output","outputs":[],"type":"OUTPUT_MATERIAL_BL"},{"inputs":[[0.0,0.0,0.0]],"is_active_output":false,"name":"Image Texture","outputs":[[0.0,0.0,0.0,0.0],0.0],"projection":"FLAT","projectionBlend":0.0,"texture":4,"type":"TEX_IMAGE_BL"}]},"useCastShadows":true}},"name":"venus-material"},{"extensions":{"S8S_v3d_material_data":{"gtaoVisible":true,"materialIndex":0,"nodeGraph":{"edges":[{"fromNode":1,"fromOutput":0,"toInput":0,"toNode":0},{"fromNode":2,"fromOutput":0,"toInput":0,"toNode":1}],"nodes":[{"inputs":[[0,0,0,0],[0,0,0,0]],"is_active_output":true,"name":"World Output","outputs":[],"type":"OUTPUT_WORLD_BL"},{"inputs":[[0.06453832238912582,0.06010431796312332,0.06664171069860458,0.0],0.09999999403953552],"is_active_output":false,"name":"Background","outputs":[[0,0,0,0]],"type":"BACKGROUND_BL"},{"inputs":[[0.0,0.0,0.0]],"is_active_output":false,"name":"Environment Texture","outputs":[[0.0,0.0,0.0,0.0]],"projection":"EQUIRECTANGULAR","texture":5,"type":"TEX_ENVIRONMENT_BL"}]},"useCastShadows":true}},"name":"Verge3D_Environment_World"}],"meshes":[{"extensions":{"S8S_v3d_mesh_data":{"colorLayers":{},"uvLayers":{"UVMap":"TEXCOORD_0"}}},"name":"Sphere","primitives":[{"attributes":{"NORMAL":2,"POSITION":1,"TEXCOORD_0":3},"indices":0,"material":1,"mode":4}]},{"extensions":{"S8S_v3d_mesh_data":{"colorLayers":{},"uvLayers":{"UVMap":"TEXCOORD_0"}}},"name":"Sphere.001","primitives":[{"attributes":{"NORMAL":6,"POSITION":5,"TEXCOORD_0":7},"indices":4,"material":0,"mode":4}]},{"extensions":{"S8S_v3d_mesh_data":{"colorLayers":{},"uvLayers":{"UVMap":"TEXCOORD_0"}}},"name":"Sphere.002","primitives":[{"attributes":{"NORMAL":10,"POSITION":9,"TEXCOORD_0":11},"indices":8,"material":2,"mode":4}]},{"extensions":{"S8S_v3d_mesh_data":{"colorLayers":{},"uvLayers":{"UVMap":"TEXCOORD_0"}}},"name":"Sphere.003","primitives":[{"attributes":{"NORMAL":14,"POSITION":13,"TEXCOORD_0":15},"indices":12,"material":4,"mode":4}]},{"extensions":{"S8S_v3d_mesh_data":{"colorLayers":{},"uvLayers":{"UVMap":"TEXCOORD_0"}}},"name":"Sphere.004","primitives":[{"attributes":{"NORMAL":18,"POSITION":17,"TEXCOORD_0":19},"indices":16,"material":1,"mode":4}]},{"extensions":{"S8S_v3d_mesh_data":{"colorLayers":{},"uvLayers":{"UVMap":"TEXCOORD_0"}}},"name":"Sphere.005","primitives":[{"attributes":{"NORMAL":22,"POSITION":21,"TEXCOORD_0":23},"indices":20,"material":3,"mode":4}]}],"nodes":[{"extensions":{"S8S_v3d_node_data":{"frustumCulling":true,"groupNames":[],"hidden":false,"hidpiCompositing":false,"objectColor":[1.0,1.0,1.0],"objectIndex":0,"renderOrder":0,"useShadows":true}},"mesh":1,"name":"clouds","scale":[4.05000114440918,4.05000114440918,4.05000114440918],"translation":[0.0,0.05901956558227539,-0.0]},{"extensions":{"S8S_v3d_node_data":{"frustumCulling":true,"groupNames":[],"hidden":true,"hidpiCompositing":false,"objectColor":[1.0,1.0,1.0],"objectIndex":0,"renderOrder":0,"useShadows":true}},"mesh":4,"name":"Sphere.002","translation":[22.588865280151367,0.0,-0.0]},{"extensions":{"S8S_v3d_node_data":{"frustumCulling":true,"groupNames":[],"hidden":false,"hidpiCompositing":false,"objectColor":[1.0,1.0,1.0],"objectIndex":0,"renderOrder":0}},"name":"planet-empty","translation":[-0.3331325650215149,4.516528129577637,-0.05329751968383789]},{"children":[2],"name":"v3d_Proxy_Node_0_planet-empty","scale":[0.25,0.25,0.25],"translation":[-0.0,-0.014754891395568848,-0.0]},{"children":[9,16],"extensions":{"S8S_v3d_node_data":{"frustumCulling":true,"groupNames":[],"hidden":false,"hidpiCompositing":false,"objectColor":[1.0,1.0,1.0],"objectIndex":0,"renderOrder":0,"useShadows":true}},"mesh":5,"name":"moon","translation":[0.0,0.0,-8.96476936340332]},{"children":[4],"name":"v3d_Proxy_Node_0_moon","scale":[-0.11082714796066284,-0.11082714796066284,-0.11082714796066284]},{"children":[5],"extensions":{"S8S_v3d_node_data":{"frustumCulling":true,"groupNames":[],"hidden":false,"hidpiCompositing":false,"objectColor":[1.0,1.0,1.0],"objectIndex":0,"renderOrder":0}},"name":"Empty","rotation":[-0.015892846509814262,-0.3110477924346924,0.04848992079496384,0.949023425579071],"scale":[-7.319483757019043,-7.319483757019043,-7.319483757019043]},{"children":[6],"name":"v3d_Proxy_Node_0_Empty","scale":[0.25,0.25,0.25],"translation":[-0.0,-0.014754891395568848,-0.0]},{"camera":1,"extensions":{"S8S_v3d_node_data":{"frustumCulling":true,"groupNames":[],"hidden":false,"hidpiCompositing":false,"objectColor":[1.0,1.0,1.0],"objectIndex":0,"renderOrder":0}},"name":"Camera-moon","rotation":[6.284099072217941e-07,0.9745661616325378,0.22409997880458832,9.964969649445266e-08],"scale":[1.0,0.9999999403953552,0.9999998807907104],"translation":[0.0,2.559999942779541,-12.736612319946289]},{"children":[8],"name":"v3d_Proxy_Node_0_Camera-moon","rotation":[-0.0007601805264130235,-0.014877924695611,-0.05102231726050377,0.9985864162445068],"scale":[1.2327454090118408,1.2327452898025513,1.2327454090118408],"translation":[2.791517239586483e-08,-1.7446982747415518e-09,8.964768409729004]},{"camera":0,"extensions":{"S8S_v3d_node_data":{"constraints":[{"maxHeight":"Infinity","maxWidth":"Infinity","minHeight":0.0,"minWidth":0.0,"mute":false,"name":"Canvas Visibility Breakpoints","orientation":"ALL","type":"canvasBreakpoints"}],"frustumCulling":true,"groupNames":["Collection 1"],"hidden":false,"hidpiCompositing":false,"objectColor":[0.0,0.0,0.0],"objectIndex":0,"renderOrder":0}},"name":"Camera","rotation":[-0.06162851303815842,0.704416036605835,0.06162847951054573,0.704416036605835],"scale":[1.0,0.9999998807907104,0.9999998807907104],"translation":[10.5600004196167,2.350289821624756,2.119999885559082]},{"children":[7,3],"extensions":{"S8S_v3d_node_data":{"frustumCulling":true,"groupNames":[],"hidden":false,"hidpiCompositing":false,"objectColor":[1.0,1.0,1.0],"objectIndex":0,"renderOrder":0,"useShadows":true}},"mesh":0,"name":"earth","scale":[4.0,4.0,4.0],"translation":[0.0,0.05901956558227539,-0.0]},{"extensions":{"S8S_v3d_node_data":{"frustumCulling":true,"groupNames":[],"hidden":false,"hidpiCompositing":false,"light":0,"objectColor":[1.0,1.0,1.0],"objectIndex":0,"renderOrder":0}},"name":"Sun","rotation":[-0.808666467666626,0.35099318623542786,-0.24724604189395905,0.4021588861942291],"scale":[2.369999885559082,0.9999998807907104,0.9999999403953552],"translation":[12.30318832397461,9.196453094482422,-10.429999351501465]},{"extensions":{"S8S_v3d_node_data":{"frustumCulling":true,"groupNames":[],"hidden":true,"hidpiCompositing":false,"objectColor":[1.0,1.0,1.0],"objectIndex":0,"renderOrder":0,"useShadows":true}},"mesh":3,"name":"Sphere.001","translation":[19.44279670715332,0.0,-0.0]},{"extensions":{"S8S_v3d_node_data":{"frustumCulling":true,"groupNames":[],"hidden":true,"hidpiCompositing":false,"objectColor":[1.0,1.0,1.0],"objectIndex":0,"renderOrder":0,"useShadows":true}},"mesh":2,"name":"Sphere","translation":[16.052757263183594,0.0,-0.0]},{"extensions":{"S8S_v3d_node_data":{"frustumCulling":true,"groupNames":[],"hidden":false,"hidpiCompositing":false,"objectColor":[1.0,1.0,1.0],"objectIndex":0,"renderOrder":0}},"name":"moon-empty","translation":[0.0,0.9026838541030884,-7.285494804382324]},{"children":[15],"name":"v3d_Proxy_Node_0_moon-empty","rotation":[-0.0007601805264130235,-0.014877924695611,-0.05102231726050377,0.9985864162445068],"scale":[1.2327454090118408,1.2327452898025513,1.2327454090118408],"translation":[2.791517239586483e-08,-1.7446982747415518e-09,8.964768409729004]}],"samplers":[{}],"scene":0,"scenes":[{"extensions":{"S8S_v3d_scene_data":{"aaMethod":"AUTO","iblEnvironmentMode":"PMREM","physicallyCorrectLights":true,"pmremMaxTileSize":256,"shadowMap":{"esmDistanceScale":1.0,"renderReverseSided":false,"renderSingleSided":true,"type":"PCFPOISSON"},"worldMaterial":5}},"extras":{"animFrameRate":24,"coordSystem":"Z_UP_RIGHT"},"name":"Scene","nodes":[11,0,12,14,13,1,10]}],"textures":[{"extensions":{"S8S_v3d_texture_data":{"colorSpace":"non-color"}},"name":"cloud_combined_2048.png","sampler":0,"source":0},{"extensions":{"S8S_v3d_texture_data":{"colorSpace":"non-color"}},"name":"planet-texture.png","sampler":0,"source":1},{"extensions":{"S8S_v3d_texture_data":{"colorSpace":"srgb"}},"name":"2k_jupiter.png.001","sampler":0,"source":2},{"extensions":{"S8S_v3d_texture_data":{"colorSpace":"srgb"}},"name":"moon.jpg","sampler":0,"source":3},{"extensions":{"S8S_v3d_texture_data":{"colorSpace":"srgb"}},"name":"2k_venus_surface.png.001","sampler":0,"source":4},{"extensions":{"S8S_v3d_texture_data":{"colorSpace":"srgb"}},"name":"ізфсу.jpeg","sampler":0,"source":5}]}
